<?xml version="1.0" encoding="iso-8859-1"?>
<!-- Generator: Adobe Illustrator 19.0.0, SVG Export Plug-In . SVG Version: 6.00 Build 0)  -->
<svg version="1.1" id="Layer_1" xmlns="http://www.w3.org/2000/svg" xmlns:xlink="http://www.w3.org/1999/xlink" x="0px" y="0px"
	 viewBox="0 0 512 512" style="enable-background:new 0 0 512 512;" xml:space="preserve">
<g>
	<path style="fill:#CC6329;" d="M374.634,512H137.366c-17.364,0-31.435-14.071-31.435-31.435V170.514
		c0-10.778,5.826-20.198,14.495-25.273c15.263-8.942,30.543-17.867,43.829-29.555l9.984-8.783c7.177-6.312,16.419-9.799,25.98-9.799
		h118.175c10.884,0,21.274,4.502,28.716,12.447l7.724,8.245c10.531,11.246,23.446,19.659,36.74,27.445
		c8.669,5.076,14.495,14.495,14.495,25.273v310.051C406.069,497.929,391.998,512,374.634,512"/>
	<polygon style="fill:#AD5123;" points="211.861,97.103 308.965,97.103 308.965,52.966 211.861,52.966 	"/>
	<path style="fill:#6A3311;" d="M315.179,52.966H205.647c-6.321,0-11.441-5.12-11.441-11.441V11.441
		C194.206,5.12,199.326,0,205.647,0h109.533c6.321,0,11.441,5.12,11.441,11.441v30.084C326.62,47.846,321.5,52.966,315.179,52.966"
		/>
	<path style="fill:#F4C44E;" d="M341.869,203.034c-19.394,0-38.409-8.607-49.267-24.682c-7.936-11.741-21.363-19.456-36.599-19.456
		s-28.672,7.715-36.599,19.456c-10.858,16.075-29.873,24.682-49.267,24.682h-1.827c-5.199,0-9.41,4.211-9.41,9.41v228.352
		c0,5.199,4.211,9.41,9.41,9.41h175.386c5.191,0,9.41-4.211,9.41-9.41V212.445c0-5.199-4.22-9.41-9.41-9.41H341.869z"/>
	<g>
		<polygon style="fill:#FFFFFF;" points="256,229.517 211.862,256 211.862,300.138 256,326.621 300.138,300.138 300.138,256 		"/>
		<path style="fill:#FFFFFF;" d="M291.31,379.586H220.69c-4.873,0-8.828-3.955-8.828-8.828c0-4.873,3.955-8.828,8.828-8.828h70.621
			c4.873,0,8.828,3.955,8.828,8.828C300.138,375.631,296.183,379.586,291.31,379.586"/>
		<path style="fill:#FFFFFF;" d="M308.966,414.897H203.034c-4.873,0-8.828-3.955-8.828-8.828s3.955-8.828,8.828-8.828h105.931
			c4.873,0,8.828,3.955,8.828,8.828S313.838,414.897,308.966,414.897"/>
	</g>
	<g>
		<path style="fill:#AD5123;" d="M282.483,26.483c4.873,0,8.828-3.955,8.828-8.828V0h-17.655v17.655
			C273.655,22.528,277.61,26.483,282.483,26.483"/>
		<path style="fill:#AD5123;" d="M238.345,26.483c4.873,0,8.828-3.955,8.828-8.828V0h-17.655v17.655
			C229.517,22.528,233.472,26.483,238.345,26.483"/>
	</g>
</g>
<g>
</g>
<g>
</g>
<g>
</g>
<g>
</g>
<g>
</g>
<g>
</g>
<g>
</g>
<g>
</g>
<g>
</g>
<g>
</g>
<g>
</g>
<g>
</g>
<g>
</g>
<g>
</g>
<g>
</g>
</svg>
